<?xml version="1.0" encoding="UTF-8"?>
<!DOCTYPE svg PUBLIC "-//W3C//DTD SVG 1.1//EN" "http://www.w3.org/Graphics/SVG/1.1/DTD/svg11.dtd">
<!-- Creator: CorelDRAW X7 -->
<svg xmlns="http://www.w3.org/2000/svg" xml:space="preserve" width="210mm" height="297mm" version="1.1" style="shape-rendering:geometricPrecision; text-rendering:geometricPrecision; image-rendering:optimizeQuality; fill-rule:evenodd; clip-rule:evenodd"
viewBox="0 0 21000 29700"
 xmlns:xlink="http://www.w3.org/1999/xlink">
 <defs>
  <style type="text/css">
   <![CDATA[
    .fil0 {fill:#0E2748}
   ]]>
  </style>
 </defs>
 <g id="Layer_x0020_1">
  <metadata id="CorelCorpID_0Corel-Layer"/>
  <path class="fil0" d="M13486 14850c0,-4 3,-10 5,-12 3,-2 9,-4 13,-4l220 0c24,0 29,35 -4,35l-211 0c-14,0 -23,-5 -23,-19zm0 -62c0,-9 8,-16 18,-16l220 0c19,0 26,20 12,31 -4,3 -12,4 -19,4l-206 0c-13,0 -25,-3 -25,-19zm-171 -69l0 204c0,41 28,82 65,101 13,6 18,5 27,14 7,7 14,13 21,21 7,7 13,13 20,20 6,6 15,18 25,18 11,0 17,-9 23,-15l38 -39c9,-8 10,-6 34,-6 51,0 103,0 154,0 59,0 111,10 157,-36 7,-7 12,-14 17,-22 9,-14 18,-37 18,-60l0 -200c0,-16 -6,-35 -12,-46 -13,-27 -30,-45 -57,-58 -12,-6 -30,-12 -47,-12l-367 0c-23,0 -48,11 -65,22 -28,20 -51,59 -51,94z"/>
 </g>
</svg>
