<?xml version="1.0" encoding="UTF-8"?>
<!DOCTYPE svg PUBLIC "-//W3C//DTD SVG 1.1//EN" "http://www.w3.org/Graphics/SVG/1.1/DTD/svg11.dtd">
<!-- Creator: CorelDRAW X7 -->
<svg xmlns="http://www.w3.org/2000/svg" xml:space="preserve" width="210mm" height="297mm" version="1.1" style="shape-rendering:geometricPrecision; text-rendering:geometricPrecision; image-rendering:optimizeQuality; fill-rule:evenodd; clip-rule:evenodd"
viewBox="0 0 21000 29700"
 xmlns:xlink="http://www.w3.org/1999/xlink">
 <defs>
  <style type="text/css">
   <![CDATA[
    .fil0 {fill:#0E2748}
   ]]>
  </style>
 </defs>
 <g id="Layer_x0020_1">
  <metadata id="CorelCorpID_0Corel-Layer"/>
  <path class="fil0" d="M13069 14850c0,-16 14,-43 24,-51 10,-9 36,-18 55,-18l933 0c99,0 120,148 -20,148l-893 0c-58,0 -99,-22 -99,-79zm0 -263c0,-37 35,-69 79,-69l933 0c77,0 106,86 48,132 -16,14 -49,16 -78,16l-873 0c-55,0 -109,-12 -109,-79zm-725 -293l0 864c0,173 122,349 276,428 56,29 80,23 115,59 31,31 58,58 89,89 31,30 57,57 87,87 24,23 63,76 103,76 47,0 73,-41 98,-66l164 -164c34,-35 39,-23 140,-23 218,0 437,0 655,0 250,0 468,39 663,-155 30,-29 50,-58 72,-92 39,-61 78,-156 78,-254l0 -849c0,-67 -26,-148 -49,-193 -57,-113 -131,-190 -245,-246 -49,-25 -127,-52 -197,-52l-1557 0c-97,0 -200,46 -272,95 -120,82 -220,248 -220,396z"/>
 </g>
</svg>
