<?xml version="1.0" encoding="UTF-8"?>
<!DOCTYPE svg PUBLIC "-//W3C//DTD SVG 1.1//EN" "http://www.w3.org/Graphics/SVG/1.1/DTD/svg11.dtd">
<!-- Creator: CorelDRAW X7 -->
<svg xmlns="http://www.w3.org/2000/svg" xml:space="preserve" width="210mm" height="297mm" version="1.1" style="shape-rendering:geometricPrecision; text-rendering:geometricPrecision; image-rendering:optimizeQuality; fill-rule:evenodd; clip-rule:evenodd"
viewBox="0 0 21000 29700"
 xmlns:xlink="http://www.w3.org/1999/xlink">
 <defs>
  <style type="text/css">
   <![CDATA[
    .fil0 {fill:#0E2748}
   ]]>
  </style>
 </defs>
 <g id="Layer_x0020_1">
  <metadata id="CorelCorpID_0Corel-Layer"/>
  <path class="fil0" d="M8607 14850c0,-95 88,-257 143,-304 64,-55 217,-113 334,-113l5604 0c598,0 721,894 -120,894l-5365 0c-351,0 -596,-133 -596,-477zm0 -1580c0,-222 209,-417 477,-417l5604 0c464,0 640,517 291,798 -98,80 -298,96 -470,96l-5246 0c-329,0 -656,-73 -656,-477zm-4352 -1758l0 5186c0,1041 732,2100 1659,2574 335,171 475,136 689,354 183,188 350,351 536,537 181,181 340,341 521,522 141,140 378,454 619,454 282,0 436,-242 589,-395l983 -983c205,-212 235,-142 842,-142 1312,0 2623,0 3935,0 1506,0 2815,238 3987,-931 175,-175 299,-350 430,-553 236,-367 471,-936 471,-1526l0 -5097c0,-406 -160,-890 -298,-1163 -342,-680 -787,-1138 -1470,-1480 -293,-147 -761,-308 -1183,-308l-9359 0c-580,0 -1200,276 -1634,572 -718,490 -1317,1489 -1317,2379z"/>
 </g>
</svg>
