<?xml version="1.0" encoding="UTF-8"?>
<!DOCTYPE svg PUBLIC "-//W3C//DTD SVG 1.1//EN" "http://www.w3.org/Graphics/SVG/1.1/DTD/svg11.dtd">
<!-- Creator: CorelDRAW X7 -->
<svg xmlns="http://www.w3.org/2000/svg" xml:space="preserve" width="210mm" height="297mm" version="1.1" style="shape-rendering:geometricPrecision; text-rendering:geometricPrecision; image-rendering:optimizeQuality; fill-rule:evenodd; clip-rule:evenodd"
viewBox="0 0 21000 29700"
 xmlns:xlink="http://www.w3.org/1999/xlink">
 <defs>
  <style type="text/css">
   <![CDATA[
    .fil0 {fill:#0E2748}
   ]]>
  </style>
 </defs>
 <g id="Layer_x0020_1">
  <metadata id="CorelCorpID_0Corel-Layer"/>
  <g id="_601592320">
   <path class="fil0" d="M9476 14175c0,265 39,430 143,661 130,291 332,551 578,752 234,192 561,381 875,381 121,0 239,-82 304,-167 26,-33 49,-51 71,-85 -65,-35 -617,-471 -682,-505 -22,14 -52,44 -73,63 -10,8 -28,23 -38,30 -73,54 -145,-37 -187,-75l-113 -105c-27,-27 -46,-51 -72,-79 -40,-43 -233,-298 -233,-353 0,-44 25,-64 51,-85 28,-21 51,-46 78,-65 -17,-32 -33,-59 -50,-93 -55,-112 -143,-259 -200,-373l-152 -285c-146,77 -300,195 -300,383z"/>
   <path class="fil0" d="M9837 13758c2,20 32,72 43,94l346 643c198,-104 39,-255 -70,-475l-89 -164c-43,-85 -53,-125 -155,-125 -29,0 -45,20 -75,27z"/>
   <path class="fil0" d="M10820 15171l332 247c58,44 110,83 168,126 57,43 111,86 168,125 21,-39 59,-97 18,-162 -19,-30 -72,-65 -102,-88l-362 -273c-80,-63 -164,-63 -222,25z"/>
  </g>
 </g>
</svg>
