<?xml version="1.0" encoding="UTF-8"?>
<!DOCTYPE svg PUBLIC "-//W3C//DTD SVG 1.1//EN" "http://www.w3.org/Graphics/SVG/1.1/DTD/svg11.dtd">
<!-- Creator: CorelDRAW X7 -->
<svg xmlns="http://www.w3.org/2000/svg" xml:space="preserve" width="210mm" height="297mm" version="1.1" style="shape-rendering:geometricPrecision; text-rendering:geometricPrecision; image-rendering:optimizeQuality; fill-rule:evenodd; clip-rule:evenodd"
viewBox="0 0 21000 29700"
 xmlns:xlink="http://www.w3.org/1999/xlink">
 <defs>
  <style type="text/css">
   <![CDATA[
    .fil0 {fill:#0E2748}
   ]]>
  </style>
 </defs>
 <g id="Layer_x0020_1">
  <metadata id="CorelCorpID_0Corel-Layer"/>
  <g id="_612492016">
   <path class="fil0" d="M10208 14651c0,78 11,127 41,195 37,86 94,162 165,222 66,56 160,112 249,112 34,0 68,-24 87,-49 7,-10 14,-15 20,-25 -18,-10 -176,-139 -194,-149 -7,4 -15,13 -21,18 -3,3 -8,7 -11,9 -21,16 -41,-11 -54,-22l-32 -31c-7,-8 -13,-15 -20,-23 -11,-13 -67,-88 -67,-104 0,-13 7,-19 15,-25 8,-6 14,-14 22,-20 -5,-9 -9,-17 -14,-27 -16,-33 -41,-77 -57,-110l-43 -84c-42,23 -86,57 -86,113z"/>
   <path class="fil0" d="M10311 14528c0,6 9,21 12,27l99 190c56,-31 11,-75 -20,-140l-26 -48c-12,-25 -15,-37 -44,-37 -8,0 -12,6 -21,8z"/>
   <path class="fil0" d="M10591 14945l95 73c16,13 31,24 48,37 16,12 31,25 48,37 6,-12 17,-29 5,-48 -6,-9 -21,-19 -29,-26l-103 -81c-23,-18 -47,-18 -64,8z"/>
  </g>
 </g>
</svg>
