<?xml version="1.0" encoding="UTF-8"?>
<!DOCTYPE svg PUBLIC "-//W3C//DTD SVG 1.1//EN" "http://www.w3.org/Graphics/SVG/1.1/DTD/svg11.dtd">
<!-- Creator: CorelDRAW X7 -->
<svg xmlns="http://www.w3.org/2000/svg" xml:space="preserve" width="210mm" height="297mm" version="1.1" style="shape-rendering:geometricPrecision; text-rendering:geometricPrecision; image-rendering:optimizeQuality; fill-rule:evenodd; clip-rule:evenodd"
viewBox="0 0 21000 29700"
 xmlns:xlink="http://www.w3.org/1999/xlink">
 <defs>
  <style type="text/css">
   <![CDATA[
    .fil0 {fill:#0E2748}
   ]]>
  </style>
 </defs>
 <g id="Layer_x0020_1">
  <metadata id="CorelCorpID_0Corel-Layer"/>
  <g id="_603266816">
   <path class="fil0" d="M5168 11211c0,1430 203,2317 745,3566 679,1564 1728,2966 3011,4051 1218,1029 2921,2050 4554,2050 627,0 1243,-442 1583,-898 132,-178 251,-279 370,-462 -339,-186 -3213,-2535 -3551,-2720 -113,78 -272,237 -383,339 -48,45 -143,126 -195,165 -381,289 -755,-200 -976,-403l-586 -570c-139,-143 -239,-274 -373,-422 -209,-230 -1216,-1606 -1216,-1902 0,-238 130,-347 269,-457 142,-113 261,-252 406,-352 -90,-175 -173,-318 -261,-502 -287,-605 -745,-1395 -1042,-2009l-793 -1532c-757,415 -1562,1048 -1562,2058z"/>
   <path class="fil0" d="M7050 8969c8,105 164,386 225,503l1799 3467c1030,-564 201,-1373 -367,-2561l-462 -881c-225,-459 -275,-675 -804,-675 -150,0 -234,110 -391,147z"/>
   <path class="fil0" d="M12164 16577l1730 1334c301,234 571,443 872,677 296,230 578,465 878,672 106,-207 307,-520 94,-869 -102,-166 -377,-352 -535,-475l-1882 -1470c-417,-340 -853,-338 -1157,131z"/>
  </g>
 </g>
</svg>
